<svg width="283" height="52" viewBox="0 0 283 52" fill="none" xmlns="http://www.w3.org/2000/svg">
<rect width="283" height="52" rx="4" fill="#00AEFF"/>
<path d="M35 26V20.75L41 19.43V25.91L35 26ZM52 17V25.75L42 25.9V19.21L52 17ZM35 27L41 27.09V33.9L35 32.75V27ZM52 27.25V36L42 34.09V27.1L52 27.25Z" fill="white"/>
<path d="M71.5103 26.272C72.1396 26.3893 72.657 26.704 73.0623 27.216C73.4676 27.728 73.6703 28.3147 73.6703 28.976C73.6703 29.5733 73.521 30.1013 73.2223 30.56C72.9343 31.008 72.513 31.36 71.9583 31.616C71.4036 31.872 70.7476 32 69.9903 32H65.1743V20.832H69.7823C70.5396 20.832 71.1903 20.9547 71.7343 21.2C72.289 21.4453 72.705 21.7867 72.9823 22.224C73.2703 22.6613 73.4143 23.1573 73.4143 23.712C73.4143 24.3627 73.2383 24.9067 72.8863 25.344C72.545 25.7813 72.0863 26.0907 71.5103 26.272ZM67.4143 25.44H69.4623C69.9956 25.44 70.4063 25.3227 70.6943 25.088C70.9823 24.8427 71.1263 24.496 71.1263 24.048C71.1263 23.6 70.9823 23.2533 70.6943 23.008C70.4063 22.7627 69.9956 22.64 69.4623 22.64H67.4143V25.44ZM69.6703 30.176C70.2143 30.176 70.6356 30.048 70.9343 29.792C71.2436 29.536 71.3983 29.1733 71.3983 28.704C71.3983 28.224 71.2383 27.8507 70.9183 27.584C70.5983 27.3067 70.1663 27.168 69.6223 27.168H67.4143V30.176H69.6703ZM74.8796 27.536C74.8796 26.64 75.0556 25.8453 75.4076 25.152C75.7702 24.4587 76.2556 23.9253 76.8636 23.552C77.4822 23.1787 78.1702 22.992 78.9276 22.992C79.5889 22.992 80.1649 23.1253 80.6556 23.392C81.1569 23.6587 81.5569 23.9947 81.8556 24.4V23.136H84.1116V32H81.8556V30.704C81.5676 31.12 81.1676 31.4667 80.6556 31.744C80.1542 32.0107 79.5729 32.144 78.9116 32.144C78.1649 32.144 77.4822 31.952 76.8636 31.568C76.2556 31.184 75.7702 30.6453 75.4076 29.952C75.0556 29.248 74.8796 28.4427 74.8796 27.536ZM81.8556 27.568C81.8556 27.024 81.7489 26.56 81.5356 26.176C81.3222 25.7813 81.0342 25.4827 80.6716 25.28C80.3089 25.0667 79.9196 24.96 79.5036 24.96C79.0876 24.96 78.7036 25.0613 78.3516 25.264C77.9996 25.4667 77.7116 25.7653 77.4876 26.16C77.2742 26.544 77.1676 27.0027 77.1676 27.536C77.1676 28.0693 77.2742 28.5387 77.4876 28.944C77.7116 29.3387 77.9996 29.6427 78.3516 29.856C78.7142 30.0693 79.0982 30.176 79.5036 30.176C79.9196 30.176 80.3089 30.0747 80.6716 29.872C81.0342 29.6587 81.3222 29.36 81.5356 28.976C81.7489 28.5813 81.8556 28.112 81.8556 27.568ZM87.4353 22.08C87.0406 22.08 86.71 21.9573 86.4433 21.712C86.1873 21.456 86.0593 21.1413 86.0593 20.768C86.0593 20.3947 86.1873 20.0853 86.4433 19.84C86.71 19.584 87.0406 19.456 87.4353 19.456C87.83 19.456 88.1553 19.584 88.4113 19.84C88.678 20.0853 88.8113 20.3947 88.8113 20.768C88.8113 21.1413 88.678 21.456 88.4113 21.712C88.1553 21.9573 87.83 22.08 87.4353 22.08ZM88.5393 23.136V32H86.2993V23.136H88.5393ZM95.6484 32L93.8244 29.248L92.2084 32H89.8084L92.7044 27.552L89.7764 23.136H92.3044L94.1124 25.872L95.7444 23.136H98.1444L95.2324 27.552L98.1764 32H95.6484ZM98.8171 27.536C98.8171 26.64 98.9931 25.8453 99.3451 25.152C99.7077 24.4587 100.193 23.9253 100.801 23.552C101.42 23.1787 102.108 22.992 102.865 22.992C103.526 22.992 104.102 23.1253 104.593 23.392C105.094 23.6587 105.494 23.9947 105.793 24.4V23.136H108.049V32H105.793V30.704C105.505 31.12 105.105 31.4667 104.593 31.744C104.092 32.0107 103.51 32.144 102.849 32.144C102.102 32.144 101.42 31.952 100.801 31.568C100.193 31.184 99.7077 30.6453 99.3451 29.952C98.9931 29.248 98.8171 28.4427 98.8171 27.536ZM105.793 27.568C105.793 27.024 105.686 26.56 105.473 26.176C105.26 25.7813 104.972 25.4827 104.609 25.28C104.246 25.0667 103.857 24.96 103.441 24.96C103.025 24.96 102.641 25.0613 102.289 25.264C101.937 25.4667 101.649 25.7653 101.425 26.16C101.212 26.544 101.105 27.0027 101.105 27.536C101.105 28.0693 101.212 28.5387 101.425 28.944C101.649 29.3387 101.937 29.6427 102.289 29.856C102.652 30.0693 103.036 30.176 103.441 30.176C103.857 30.176 104.246 30.0747 104.609 29.872C104.972 29.6587 105.26 29.36 105.473 28.976C105.686 28.5813 105.793 28.112 105.793 27.568ZM112.477 24.512C112.765 24.0427 113.138 23.6747 113.597 23.408C114.066 23.1413 114.599 23.008 115.197 23.008V25.36H114.605C113.901 25.36 113.367 25.5253 113.005 25.856C112.653 26.1867 112.477 26.7627 112.477 27.584V32H110.237V23.136H112.477V24.512ZM122.758 24.416C123.046 24.0107 123.441 23.6747 123.942 23.408C124.454 23.1307 125.035 22.992 125.686 22.992C126.443 22.992 127.126 23.1787 127.734 23.552C128.353 23.9253 128.838 24.4587 129.19 25.152C129.553 25.8347 129.734 26.6293 129.734 27.536C129.734 28.4427 129.553 29.248 129.19 29.952C128.838 30.6453 128.353 31.184 127.734 31.568C127.126 31.952 126.443 32.144 125.686 32.144C125.035 32.144 124.459 32.0107 123.958 31.744C123.467 31.4773 123.067 31.1413 122.758 30.736V36.224H120.518V23.136H122.758V24.416ZM127.446 27.536C127.446 27.0027 127.334 26.544 127.11 26.16C126.897 25.7653 126.609 25.4667 126.246 25.264C125.894 25.0613 125.51 24.96 125.094 24.96C124.689 24.96 124.305 25.0667 123.942 25.28C123.59 25.4827 123.302 25.7813 123.078 26.176C122.865 26.5707 122.758 27.0347 122.758 27.568C122.758 28.1013 122.865 28.5653 123.078 28.96C123.302 29.3547 123.59 29.6587 123.942 29.872C124.305 30.0747 124.689 30.176 125.094 30.176C125.51 30.176 125.894 30.0693 126.246 29.856C126.609 29.6427 126.897 29.3387 127.11 28.944C127.334 28.5493 127.446 28.08 127.446 27.536ZM130.786 27.536C130.786 26.64 130.962 25.8453 131.314 25.152C131.676 24.4587 132.162 23.9253 132.77 23.552C133.388 23.1787 134.076 22.992 134.834 22.992C135.495 22.992 136.071 23.1253 136.562 23.392C137.063 23.6587 137.463 23.9947 137.762 24.4V23.136H140.018V32H137.762V30.704C137.474 31.12 137.074 31.4667 136.562 31.744C136.06 32.0107 135.479 32.144 134.818 32.144C134.071 32.144 133.388 31.952 132.77 31.568C132.162 31.184 131.676 30.6453 131.314 29.952C130.962 29.248 130.786 28.4427 130.786 27.536ZM137.762 27.568C137.762 27.024 137.655 26.56 137.442 26.176C137.228 25.7813 136.94 25.4827 136.578 25.28C136.215 25.0667 135.826 24.96 135.41 24.96C134.994 24.96 134.61 25.0613 134.258 25.264C133.906 25.4667 133.618 25.7653 133.394 26.16C133.18 26.544 133.074 27.0027 133.074 27.536C133.074 28.0693 133.18 28.5387 133.394 28.944C133.618 29.3387 133.906 29.6427 134.258 29.856C134.62 30.0693 135.004 30.176 135.41 30.176C135.826 30.176 136.215 30.0747 136.578 29.872C136.94 29.6587 137.228 29.36 137.442 28.976C137.655 28.5813 137.762 28.112 137.762 27.568ZM144.446 24.512C144.734 24.0427 145.107 23.6747 145.566 23.408C146.035 23.1413 146.568 23.008 147.166 23.008V25.36H146.574C145.87 25.36 145.336 25.5253 144.974 25.856C144.622 26.1867 144.446 26.7627 144.446 27.584V32H142.206V23.136H144.446V24.512ZM148.098 27.536C148.098 26.64 148.274 25.8453 148.626 25.152C148.989 24.4587 149.474 23.9253 150.082 23.552C150.701 23.1787 151.389 22.992 152.146 22.992C152.808 22.992 153.384 23.1253 153.874 23.392C154.376 23.6587 154.776 23.9947 155.074 24.4V23.136H157.33V32H155.074V30.704C154.786 31.12 154.386 31.4667 153.874 31.744C153.373 32.0107 152.792 32.144 152.13 32.144C151.384 32.144 150.701 31.952 150.082 31.568C149.474 31.184 148.989 30.6453 148.626 29.952C148.274 29.248 148.098 28.4427 148.098 27.536ZM155.074 27.568C155.074 27.024 154.968 26.56 154.754 26.176C154.541 25.7813 154.253 25.4827 153.89 25.28C153.528 25.0667 153.138 24.96 152.722 24.96C152.306 24.96 151.922 25.0613 151.57 25.264C151.218 25.4667 150.93 25.7653 150.706 26.16C150.493 26.544 150.386 27.0027 150.386 27.536C150.386 28.0693 150.493 28.5387 150.706 28.944C150.93 29.3387 151.218 29.6427 151.57 29.856C151.933 30.0693 152.317 30.176 152.722 30.176C153.138 30.176 153.528 30.0747 153.89 29.872C154.253 29.6587 154.541 29.36 154.754 28.976C154.968 28.5813 155.074 28.112 155.074 27.568ZM167.267 32.144C166.413 32.144 165.645 31.9573 164.963 31.584C164.28 31.2 163.741 30.6613 163.347 29.968C162.963 29.2747 162.771 28.4747 162.771 27.568C162.771 26.6613 162.968 25.8613 163.363 25.168C163.768 24.4747 164.317 23.9413 165.011 23.568C165.704 23.184 166.477 22.992 167.331 22.992C168.184 22.992 168.957 23.184 169.651 23.568C170.344 23.9413 170.888 24.4747 171.283 25.168C171.688 25.8613 171.891 26.6613 171.891 27.568C171.891 28.4747 171.683 29.2747 171.267 29.968C170.861 30.6613 170.307 31.2 169.603 31.584C168.909 31.9573 168.131 32.144 167.267 32.144ZM167.267 30.192C167.672 30.192 168.051 30.096 168.403 29.904C168.765 29.7013 169.053 29.4027 169.267 29.008C169.48 28.6133 169.587 28.1333 169.587 27.568C169.587 26.7253 169.363 26.08 168.915 25.632C168.477 25.1733 167.939 24.944 167.299 24.944C166.659 24.944 166.12 25.1733 165.683 25.632C165.256 26.08 165.043 26.7253 165.043 27.568C165.043 28.4107 165.251 29.0613 165.667 29.52C166.093 29.968 166.627 30.192 167.267 30.192ZM192.274 20.832L189.154 32H186.514L184.418 24.048L182.226 32L179.602 32.016L176.594 20.832H178.994L180.962 29.504L183.234 20.832H185.73L187.874 29.456L189.858 20.832H192.274ZM194.873 22.08C194.478 22.08 194.147 21.9573 193.881 21.712C193.625 21.456 193.497 21.1413 193.497 20.768C193.497 20.3947 193.625 20.0853 193.881 19.84C194.147 19.584 194.478 19.456 194.873 19.456C195.267 19.456 195.593 19.584 195.849 19.84C196.115 20.0853 196.249 20.3947 196.249 20.768C196.249 21.1413 196.115 21.456 195.849 21.712C195.593 21.9573 195.267 22.08 194.873 22.08ZM195.977 23.136V32H193.737V23.136H195.977ZM203.102 23.008C204.158 23.008 205.011 23.344 205.662 24.016C206.313 24.6773 206.638 25.6053 206.638 26.8V32H204.398V27.104C204.398 26.4 204.222 25.8613 203.87 25.488C203.518 25.104 203.038 24.912 202.43 24.912C201.811 24.912 201.321 25.104 200.958 25.488C200.606 25.8613 200.43 26.4 200.43 27.104V32H198.19V23.136H200.43V24.24C200.729 23.856 201.107 23.5573 201.566 23.344C202.035 23.12 202.547 23.008 203.102 23.008ZM208.192 27.536C208.192 26.64 208.368 25.8453 208.72 25.152C209.083 24.4587 209.573 23.9253 210.192 23.552C210.811 23.1787 211.499 22.992 212.256 22.992C212.832 22.992 213.381 23.12 213.904 23.376C214.427 23.6213 214.843 23.952 215.152 24.368V20.16H217.424V32H215.152V30.688C214.875 31.1253 214.485 31.4773 213.984 31.744C213.483 32.0107 212.901 32.144 212.24 32.144C211.493 32.144 210.811 31.952 210.192 31.568C209.573 31.184 209.083 30.6453 208.72 29.952C208.368 29.248 208.192 28.4427 208.192 27.536ZM215.168 27.568C215.168 27.024 215.061 26.56 214.848 26.176C214.635 25.7813 214.347 25.4827 213.984 25.28C213.621 25.0667 213.232 24.96 212.816 24.96C212.4 24.96 212.016 25.0613 211.664 25.264C211.312 25.4667 211.024 25.7653 210.8 26.16C210.587 26.544 210.48 27.0027 210.48 27.536C210.48 28.0693 210.587 28.5387 210.8 28.944C211.024 29.3387 211.312 29.6427 211.664 29.856C212.027 30.0693 212.411 30.176 212.816 30.176C213.232 30.176 213.621 30.0747 213.984 29.872C214.347 29.6587 214.635 29.36 214.848 28.976C215.061 28.5813 215.168 28.112 215.168 27.568ZM223.548 32.144C222.694 32.144 221.926 31.9573 221.244 31.584C220.561 31.2 220.022 30.6613 219.628 29.968C219.244 29.2747 219.052 28.4747 219.052 27.568C219.052 26.6613 219.249 25.8613 219.644 25.168C220.049 24.4747 220.598 23.9413 221.292 23.568C221.985 23.184 222.758 22.992 223.612 22.992C224.465 22.992 225.238 23.184 225.932 23.568C226.625 23.9413 227.169 24.4747 227.564 25.168C227.969 25.8613 228.172 26.6613 228.172 27.568C228.172 28.4747 227.964 29.2747 227.548 29.968C227.142 30.6613 226.588 31.2 225.884 31.584C225.19 31.9573 224.412 32.144 223.548 32.144ZM223.548 30.192C223.953 30.192 224.332 30.096 224.684 29.904C225.046 29.7013 225.334 29.4027 225.548 29.008C225.761 28.6133 225.868 28.1333 225.868 27.568C225.868 26.7253 225.644 26.08 225.196 25.632C224.758 25.1733 224.22 24.944 223.58 24.944C222.94 24.944 222.401 25.1733 221.964 25.632C221.537 26.08 221.324 26.7253 221.324 27.568C221.324 28.4107 221.532 29.0613 221.948 29.52C222.374 29.968 222.908 30.192 223.548 30.192ZM242.103 23.136L239.511 32H237.095L235.479 25.808L233.863 32H231.431L228.823 23.136H231.095L232.663 29.888L234.359 23.136H236.727L238.391 29.872L239.959 23.136H242.103ZM246.707 32.144C245.982 32.144 245.331 32.016 244.755 31.76C244.179 31.4933 243.72 31.136 243.379 30.688C243.048 30.24 242.867 29.744 242.835 29.2H245.091C245.134 29.5413 245.299 29.824 245.587 30.048C245.886 30.272 246.254 30.384 246.691 30.384C247.118 30.384 247.448 30.2987 247.683 30.128C247.928 29.9573 248.051 29.7387 248.051 29.472C248.051 29.184 247.902 28.9707 247.603 28.832C247.315 28.6827 246.851 28.5227 246.211 28.352C245.55 28.192 245.006 28.0267 244.579 27.856C244.163 27.6853 243.8 27.424 243.491 27.072C243.192 26.72 243.043 26.2453 243.043 25.648C243.043 25.1573 243.182 24.7093 243.459 24.304C243.747 23.8987 244.152 23.5787 244.675 23.344C245.208 23.1093 245.832 22.992 246.547 22.992C247.603 22.992 248.446 23.2587 249.075 23.792C249.704 24.3147 250.051 25.024 250.115 25.92H247.971C247.939 25.568 247.79 25.2907 247.523 25.088C247.267 24.8747 246.92 24.768 246.483 24.768C246.078 24.768 245.763 24.8427 245.539 24.992C245.326 25.1413 245.219 25.3493 245.219 25.616C245.219 25.9147 245.368 26.144 245.667 26.304C245.966 26.4533 246.43 26.608 247.059 26.768C247.699 26.928 248.227 27.0933 248.643 27.264C249.059 27.4347 249.416 27.7013 249.715 28.064C250.024 28.416 250.184 28.8853 250.195 29.472C250.195 29.984 250.051 30.4427 249.763 30.848C249.486 31.2533 249.08 31.5733 248.547 31.808C248.024 32.032 247.411 32.144 246.707 32.144Z" fill="white"/>
</svg>
