<svg width="266" height="52" viewBox="0 0 266 52" fill="none" xmlns="http://www.w3.org/2000/svg">
<rect width="266" height="52" rx="4" fill="#00AEFF"/>
<path d="M50.7937 26.6832C50.7822 24.7159 51.6702 23.2333 53.4634 22.1401C52.4605 20.6978 50.9432 19.9046 48.9431 19.7517C47.0493 19.6017 44.9774 20.8593 44.2188 20.8593C43.417 20.8593 41.5836 19.8036 40.141 19.8036C37.1639 19.8498 34 22.1862 34 26.9399C34 28.3446 34.2558 29.7955 34.7673 31.2897C35.4512 33.2569 37.9168 38.0769 40.4887 37.9991C41.8336 37.9673 42.7848 37.0414 44.5349 37.0414C46.2332 37.0414 47.1126 37.9991 48.6126 37.9991C51.2075 37.9616 53.4375 33.58 54.087 31.607C50.6069 29.96 50.7937 26.7841 50.7937 26.6832ZM47.7735 17.8854C49.2305 16.149 49.0983 14.5682 49.0552 14C47.7678 14.075 46.2792 14.8798 45.4315 15.8692C44.4975 16.9307 43.9486 18.2431 44.0665 19.7229C45.4573 19.8296 46.7275 19.1113 47.7735 17.8854Z" fill="white"/>
<path d="M71.7681 26.272C72.3975 26.3893 72.9148 26.704 73.3201 27.216C73.7255 27.728 73.9281 28.3147 73.9281 28.976C73.9281 29.5733 73.7788 30.1013 73.4801 30.56C73.1921 31.008 72.7708 31.36 72.2161 31.616C71.6615 31.872 71.0055 32 70.2481 32H65.4321V20.832H70.0401C70.7975 20.832 71.4481 20.9547 71.9921 21.2C72.5468 21.4453 72.9628 21.7867 73.2401 22.224C73.5281 22.6613 73.6721 23.1573 73.6721 23.712C73.6721 24.3627 73.4961 24.9067 73.1441 25.344C72.8028 25.7813 72.3441 26.0907 71.7681 26.272ZM67.6721 25.44H69.7201C70.2535 25.44 70.6641 25.3227 70.9521 25.088C71.2401 24.8427 71.3841 24.496 71.3841 24.048C71.3841 23.6 71.2401 23.2533 70.9521 23.008C70.6641 22.7627 70.2535 22.64 69.7201 22.64H67.6721V25.44ZM69.9281 30.176C70.4721 30.176 70.8935 30.048 71.1921 29.792C71.5015 29.536 71.6561 29.1733 71.6561 28.704C71.6561 28.224 71.4961 27.8507 71.1761 27.584C70.8561 27.3067 70.4241 27.168 69.8801 27.168H67.6721V30.176H69.9281ZM75.1374 27.536C75.1374 26.64 75.3134 25.8453 75.6654 25.152C76.028 24.4587 76.5134 23.9253 77.1214 23.552C77.74 23.1787 78.428 22.992 79.1854 22.992C79.8467 22.992 80.4227 23.1253 80.9134 23.392C81.4147 23.6587 81.8147 23.9947 82.1134 24.4V23.136H84.3694V32H82.1134V30.704C81.8254 31.12 81.4254 31.4667 80.9134 31.744C80.412 32.0107 79.8307 32.144 79.1694 32.144C78.4227 32.144 77.74 31.952 77.1214 31.568C76.5134 31.184 76.028 30.6453 75.6654 29.952C75.3134 29.248 75.1374 28.4427 75.1374 27.536ZM82.1134 27.568C82.1134 27.024 82.0067 26.56 81.7934 26.176C81.58 25.7813 81.292 25.4827 80.9294 25.28C80.5667 25.0667 80.1774 24.96 79.7614 24.96C79.3454 24.96 78.9614 25.0613 78.6094 25.264C78.2574 25.4667 77.9694 25.7653 77.7454 26.16C77.532 26.544 77.4254 27.0027 77.4254 27.536C77.4254 28.0693 77.532 28.5387 77.7454 28.944C77.9694 29.3387 78.2574 29.6427 78.6094 29.856C78.972 30.0693 79.356 30.176 79.7614 30.176C80.1774 30.176 80.5667 30.0747 80.9294 29.872C81.292 29.6587 81.58 29.36 81.7934 28.976C82.0067 28.5813 82.1134 28.112 82.1134 27.568ZM87.6931 22.08C87.2985 22.08 86.9678 21.9573 86.7011 21.712C86.4451 21.456 86.3171 21.1413 86.3171 20.768C86.3171 20.3947 86.4451 20.0853 86.7011 19.84C86.9678 19.584 87.2985 19.456 87.6931 19.456C88.0878 19.456 88.4131 19.584 88.6691 19.84C88.9358 20.0853 89.0691 20.3947 89.0691 20.768C89.0691 21.1413 88.9358 21.456 88.6691 21.712C88.4131 21.9573 88.0878 22.08 87.6931 22.08ZM88.7971 23.136V32H86.5571V23.136H88.7971ZM95.9063 32L94.0823 29.248L92.4663 32H90.0663L92.9623 27.552L90.0343 23.136H92.5623L94.3703 25.872L96.0023 23.136H98.4023L95.4903 27.552L98.4343 32H95.9063ZM99.0749 27.536C99.0749 26.64 99.2509 25.8453 99.6029 25.152C99.9655 24.4587 100.451 23.9253 101.059 23.552C101.678 23.1787 102.366 22.992 103.123 22.992C103.784 22.992 104.36 23.1253 104.851 23.392C105.352 23.6587 105.752 23.9947 106.051 24.4V23.136H108.307V32H106.051V30.704C105.763 31.12 105.363 31.4667 104.851 31.744C104.35 32.0107 103.768 32.144 103.107 32.144C102.36 32.144 101.678 31.952 101.059 31.568C100.451 31.184 99.9655 30.6453 99.6029 29.952C99.2509 29.248 99.0749 28.4427 99.0749 27.536ZM106.051 27.568C106.051 27.024 105.944 26.56 105.731 26.176C105.518 25.7813 105.23 25.4827 104.867 25.28C104.504 25.0667 104.115 24.96 103.699 24.96C103.283 24.96 102.899 25.0613 102.547 25.264C102.195 25.4667 101.907 25.7653 101.683 26.16C101.47 26.544 101.363 27.0027 101.363 27.536C101.363 28.0693 101.47 28.5387 101.683 28.944C101.907 29.3387 102.195 29.6427 102.547 29.856C102.91 30.0693 103.294 30.176 103.699 30.176C104.115 30.176 104.504 30.0747 104.867 29.872C105.23 29.6587 105.518 29.36 105.731 28.976C105.944 28.5813 106.051 28.112 106.051 27.568ZM112.735 24.512C113.023 24.0427 113.396 23.6747 113.855 23.408C114.324 23.1413 114.857 23.008 115.455 23.008V25.36H114.863C114.159 25.36 113.625 25.5253 113.263 25.856C112.911 26.1867 112.735 26.7627 112.735 27.584V32H110.495V23.136H112.735V24.512ZM123.016 24.416C123.304 24.0107 123.699 23.6747 124.2 23.408C124.712 23.1307 125.293 22.992 125.944 22.992C126.701 22.992 127.384 23.1787 127.992 23.552C128.611 23.9253 129.096 24.4587 129.448 25.152C129.811 25.8347 129.992 26.6293 129.992 27.536C129.992 28.4427 129.811 29.248 129.448 29.952C129.096 30.6453 128.611 31.184 127.992 31.568C127.384 31.952 126.701 32.144 125.944 32.144C125.293 32.144 124.717 32.0107 124.216 31.744C123.725 31.4773 123.325 31.1413 123.016 30.736V36.224H120.776V23.136H123.016V24.416ZM127.704 27.536C127.704 27.0027 127.592 26.544 127.368 26.16C127.155 25.7653 126.867 25.4667 126.504 25.264C126.152 25.0613 125.768 24.96 125.352 24.96C124.947 24.96 124.563 25.0667 124.2 25.28C123.848 25.4827 123.56 25.7813 123.336 26.176C123.123 26.5707 123.016 27.0347 123.016 27.568C123.016 28.1013 123.123 28.5653 123.336 28.96C123.56 29.3547 123.848 29.6587 124.2 29.872C124.563 30.0747 124.947 30.176 125.352 30.176C125.768 30.176 126.152 30.0693 126.504 29.856C126.867 29.6427 127.155 29.3387 127.368 28.944C127.592 28.5493 127.704 28.08 127.704 27.536ZM131.044 27.536C131.044 26.64 131.22 25.8453 131.572 25.152C131.934 24.4587 132.42 23.9253 133.028 23.552C133.646 23.1787 134.334 22.992 135.092 22.992C135.753 22.992 136.329 23.1253 136.82 23.392C137.321 23.6587 137.721 23.9947 138.02 24.4V23.136H140.276V32H138.02V30.704C137.732 31.12 137.332 31.4667 136.82 31.744C136.318 32.0107 135.737 32.144 135.076 32.144C134.329 32.144 133.646 31.952 133.028 31.568C132.42 31.184 131.934 30.6453 131.572 29.952C131.22 29.248 131.044 28.4427 131.044 27.536ZM138.02 27.568C138.02 27.024 137.913 26.56 137.7 26.176C137.486 25.7813 137.198 25.4827 136.836 25.28C136.473 25.0667 136.084 24.96 135.668 24.96C135.252 24.96 134.868 25.0613 134.516 25.264C134.164 25.4667 133.876 25.7653 133.652 26.16C133.438 26.544 133.332 27.0027 133.332 27.536C133.332 28.0693 133.438 28.5387 133.652 28.944C133.876 29.3387 134.164 29.6427 134.516 29.856C134.878 30.0693 135.262 30.176 135.668 30.176C136.084 30.176 136.473 30.0747 136.836 29.872C137.198 29.6587 137.486 29.36 137.7 28.976C137.913 28.5813 138.02 28.112 138.02 27.568ZM144.703 24.512C144.991 24.0427 145.365 23.6747 145.823 23.408C146.293 23.1413 146.826 23.008 147.423 23.008V25.36H146.831C146.127 25.36 145.594 25.5253 145.231 25.856C144.879 26.1867 144.703 26.7627 144.703 27.584V32H142.463V23.136H144.703V24.512ZM148.356 27.536C148.356 26.64 148.532 25.8453 148.884 25.152C149.247 24.4587 149.732 23.9253 150.34 23.552C150.959 23.1787 151.647 22.992 152.404 22.992C153.065 22.992 153.641 23.1253 154.132 23.392C154.633 23.6587 155.033 23.9947 155.332 24.4V23.136H157.588V32H155.332V30.704C155.044 31.12 154.644 31.4667 154.132 31.744C153.631 32.0107 153.049 32.144 152.388 32.144C151.641 32.144 150.959 31.952 150.34 31.568C149.732 31.184 149.247 30.6453 148.884 29.952C148.532 29.248 148.356 28.4427 148.356 27.536ZM155.332 27.568C155.332 27.024 155.225 26.56 155.012 26.176C154.799 25.7813 154.511 25.4827 154.148 25.28C153.785 25.0667 153.396 24.96 152.98 24.96C152.564 24.96 152.18 25.0613 151.828 25.264C151.476 25.4667 151.188 25.7653 150.964 26.16C150.751 26.544 150.644 27.0027 150.644 27.536C150.644 28.0693 150.751 28.5387 150.964 28.944C151.188 29.3387 151.476 29.6427 151.828 29.856C152.191 30.0693 152.575 30.176 152.98 30.176C153.396 30.176 153.785 30.0747 154.148 29.872C154.511 29.6587 154.799 29.36 155.012 28.976C155.225 28.5813 155.332 28.112 155.332 27.568ZM167.524 32.144C166.671 32.144 165.903 31.9573 165.22 31.584C164.538 31.2 163.999 30.6613 163.604 29.968C163.22 29.2747 163.028 28.4747 163.028 27.568C163.028 26.6613 163.226 25.8613 163.62 25.168C164.026 24.4747 164.575 23.9413 165.268 23.568C165.962 23.184 166.735 22.992 167.588 22.992C168.442 22.992 169.215 23.184 169.908 23.568C170.602 23.9413 171.146 24.4747 171.54 25.168C171.946 25.8613 172.148 26.6613 172.148 27.568C172.148 28.4747 171.94 29.2747 171.524 29.968C171.119 30.6613 170.564 31.2 169.86 31.584C169.167 31.9573 168.388 32.144 167.524 32.144ZM167.524 30.192C167.93 30.192 168.308 30.096 168.66 29.904C169.023 29.7013 169.311 29.4027 169.524 29.008C169.738 28.6133 169.844 28.1333 169.844 27.568C169.844 26.7253 169.62 26.08 169.172 25.632C168.735 25.1733 168.196 24.944 167.556 24.944C166.916 24.944 166.378 25.1733 165.94 25.632C165.514 26.08 165.3 26.7253 165.3 27.568C165.3 28.4107 165.508 29.0613 165.924 29.52C166.351 29.968 166.884 30.192 167.524 30.192ZM189.78 20.832V32H187.54V24.736L184.548 32H182.852L179.844 24.736V32H177.604V20.832H180.148L183.7 29.136L187.252 20.832H189.78ZM191.419 27.536C191.419 26.64 191.595 25.8453 191.947 25.152C192.309 24.4587 192.795 23.9253 193.403 23.552C194.021 23.1787 194.709 22.992 195.467 22.992C196.128 22.992 196.704 23.1253 197.195 23.392C197.696 23.6587 198.096 23.9947 198.395 24.4V23.136H200.651V32H198.395V30.704C198.107 31.12 197.707 31.4667 197.195 31.744C196.693 32.0107 196.112 32.144 195.451 32.144C194.704 32.144 194.021 31.952 193.403 31.568C192.795 31.184 192.309 30.6453 191.947 29.952C191.595 29.248 191.419 28.4427 191.419 27.536ZM198.395 27.568C198.395 27.024 198.288 26.56 198.075 26.176C197.861 25.7813 197.573 25.4827 197.211 25.28C196.848 25.0667 196.459 24.96 196.043 24.96C195.627 24.96 195.243 25.0613 194.891 25.264C194.539 25.4667 194.251 25.7653 194.027 26.16C193.813 26.544 193.707 27.0027 193.707 27.536C193.707 28.0693 193.813 28.5387 194.027 28.944C194.251 29.3387 194.539 29.6427 194.891 29.856C195.253 30.0693 195.637 30.176 196.043 30.176C196.459 30.176 196.848 30.0747 197.211 29.872C197.573 29.6587 197.861 29.36 198.075 28.976C198.288 28.5813 198.395 28.112 198.395 27.568ZM202.262 27.568C202.262 26.6507 202.449 25.8507 202.822 25.168C203.196 24.4747 203.713 23.9413 204.374 23.568C205.036 23.184 205.793 22.992 206.646 22.992C207.745 22.992 208.652 23.2693 209.366 23.824C210.092 24.368 210.577 25.136 210.822 26.128H208.406C208.278 25.744 208.06 25.4453 207.75 25.232C207.452 25.008 207.078 24.896 206.63 24.896C205.99 24.896 205.484 25.1307 205.11 25.6C204.737 26.0587 204.55 26.7147 204.55 27.568C204.55 28.4107 204.737 29.0667 205.11 29.536C205.484 29.9947 205.99 30.224 206.63 30.224C207.537 30.224 208.129 29.8187 208.406 29.008H210.822C210.577 29.968 210.092 30.7307 209.366 31.296C208.641 31.8613 207.734 32.144 206.646 32.144C205.793 32.144 205.036 31.9573 204.374 31.584C203.713 31.2 203.196 30.6667 202.822 29.984C202.449 29.2907 202.262 28.4853 202.262 27.568ZM217.647 32.112C216.602 32.112 215.642 31.8667 214.767 31.376C213.893 30.8853 213.199 30.208 212.687 29.344C212.175 28.4693 211.919 27.4827 211.919 26.384C211.919 25.296 212.175 24.32 212.687 23.456C213.199 22.5813 213.893 21.8987 214.767 21.408C215.642 20.9173 216.602 20.672 217.647 20.672C218.703 20.672 219.663 20.9173 220.527 21.408C221.402 21.8987 222.09 22.5813 222.591 23.456C223.103 24.32 223.359 25.296 223.359 26.384C223.359 27.4827 223.103 28.4693 222.591 29.344C222.09 30.208 221.402 30.8853 220.527 31.376C219.653 31.8667 218.693 32.112 217.647 32.112ZM217.647 30.112C218.319 30.112 218.911 29.9627 219.423 29.664C219.935 29.3547 220.335 28.9173 220.623 28.352C220.911 27.7867 221.055 27.1307 221.055 26.384C221.055 25.6373 220.911 24.9867 220.623 24.432C220.335 23.8667 219.935 23.4347 219.423 23.136C218.911 22.8373 218.319 22.688 217.647 22.688C216.975 22.688 216.378 22.8373 215.855 23.136C215.343 23.4347 214.943 23.8667 214.655 24.432C214.367 24.9867 214.223 25.6373 214.223 26.384C214.223 27.1307 214.367 27.7867 214.655 28.352C214.943 28.9173 215.343 29.3547 215.855 29.664C216.378 29.9627 216.975 30.112 217.647 30.112ZM228.882 32.112C228.103 32.112 227.399 31.9787 226.77 31.712C226.151 31.4453 225.661 31.0613 225.298 30.56C224.935 30.0587 224.749 29.4667 224.738 28.784H227.138C227.17 29.2427 227.33 29.6053 227.618 29.872C227.917 30.1387 228.322 30.272 228.834 30.272C229.357 30.272 229.767 30.1493 230.066 29.904C230.365 29.648 230.514 29.3173 230.514 28.912C230.514 28.5813 230.413 28.3093 230.21 28.096C230.007 27.8827 229.751 27.7173 229.442 27.6C229.143 27.472 228.727 27.3333 228.194 27.184C227.469 26.9707 226.877 26.7627 226.418 26.56C225.97 26.3467 225.581 26.032 225.25 25.616C224.93 25.1893 224.77 24.624 224.77 23.92C224.77 23.2587 224.935 22.6827 225.266 22.192C225.597 21.7013 226.061 21.328 226.658 21.072C227.255 20.8053 227.938 20.672 228.706 20.672C229.858 20.672 230.791 20.9547 231.506 21.52C232.231 22.0747 232.631 22.8533 232.706 23.856H230.242C230.221 23.472 230.055 23.1573 229.746 22.912C229.447 22.656 229.047 22.528 228.546 22.528C228.109 22.528 227.757 22.64 227.49 22.864C227.234 23.088 227.106 23.4133 227.106 23.84C227.106 24.1387 227.202 24.3893 227.394 24.592C227.597 24.784 227.842 24.944 228.13 25.072C228.429 25.1893 228.845 25.328 229.378 25.488C230.103 25.7013 230.695 25.9147 231.154 26.128C231.613 26.3413 232.007 26.6613 232.338 27.088C232.669 27.5147 232.834 28.0747 232.834 28.768C232.834 29.3653 232.679 29.92 232.37 30.432C232.061 30.944 231.607 31.3547 231.01 31.664C230.413 31.9627 229.703 32.112 228.882 32.112Z" fill="white"/>
</svg>
