<svg width="250" height="52" viewBox="0 0 250 52" fill="none" xmlns="http://www.w3.org/2000/svg">
<rect width="250" height="52" rx="4" fill="#00AEFF"/>
<path d="M51.9214 30.734C52.1482 30.8248 52.3436 30.9796 52.4839 31.1795C52.6099 31.367 52.6984 31.5935 52.7539 31.859C52.7839 32.015 52.8199 32.159 52.8589 32.294C52.9325 32.547 53.0432 32.7876 53.1874 33.008C53.2579 33.1175 53.3524 33.2375 53.4694 33.371C53.5699 33.4805 53.6599 33.6215 53.7394 33.7925C53.8127 33.9463 53.8521 34.1141 53.8549 34.2845C53.8607 34.4483 53.8116 34.6093 53.7154 34.742C53.6176 34.8708 53.4983 34.9819 53.3629 35.0705C53.1829 35.195 52.9954 35.3045 52.8004 35.399C52.6054 35.492 52.4104 35.5895 52.2154 35.6915C51.9239 35.8304 51.6453 35.9951 51.3829 36.1835C51.1489 36.356 50.9134 36.5735 50.6794 36.8405C50.4066 37.1461 50.0908 37.4104 49.7419 37.625C49.5638 37.738 49.3703 37.8249 49.1674 37.883C48.9724 37.937 48.7774 37.973 48.5824 37.988C48.1294 37.988 47.7544 37.91 47.4574 37.754C47.1604 37.598 46.9024 37.313 46.6834 36.899C46.6204 36.7805 46.5589 36.707 46.4959 36.6755C46.3987 36.6343 46.2962 36.6065 46.1914 36.593L45.0049 36.5C44.6149 36.47 44.2174 36.4535 43.8109 36.4535C43.4733 36.454 43.1363 36.481 42.8029 36.5345C42.4594 36.59 42.1189 36.656 41.7829 36.734C41.7139 36.749 41.6434 36.809 41.5729 36.9095C41.4852 37.0314 41.3868 37.1454 41.2789 37.25C41.1328 37.3891 40.9625 37.5005 40.7764 37.5785C40.5113 37.6821 40.2286 37.7335 39.9439 37.73C39.6859 37.73 39.4084 37.703 39.1114 37.649C38.8336 37.6007 38.5649 37.5096 38.3149 37.379C37.864 37.1484 37.3828 36.9827 36.8854 36.887C36.4159 36.8015 35.9209 36.722 35.3974 36.653C35.2239 36.6304 35.0517 36.5989 34.8814 36.5585C34.7242 36.5229 34.576 36.455 34.4464 36.359C34.3275 36.2711 34.2284 36.1591 34.1554 36.0305C34.0755 35.8666 34.0349 35.6863 34.0369 35.504C34.0369 35.261 34.0684 35.027 34.1314 34.8005C34.1944 34.5755 34.2289 34.3355 34.2364 34.0865C34.2364 33.914 34.2244 33.746 34.2019 33.5825C34.1771 33.4074 34.1611 33.2312 34.1539 33.0545C34.1539 32.657 34.2484 32.3645 34.4359 32.1755C34.6234 31.988 34.8964 31.8395 35.2564 31.73C35.4164 31.6816 35.567 31.6065 35.7019 31.508C35.8257 31.4146 35.943 31.3129 36.0529 31.2035C36.1645 31.0914 36.2664 30.9699 36.3574 30.8405C36.4519 30.707 36.5569 30.5735 36.6739 30.4415C36.6973 30.4115 36.71 30.3745 36.7099 30.3365C36.7099 30.242 36.7054 30.152 36.6979 30.0665L36.6739 29.7845C36.6739 29.2535 36.7564 28.7195 36.9199 28.1795C37.0849 27.6395 37.2994 27.1145 37.5649 26.597C37.83 26.0826 38.1276 25.5856 38.4559 25.109C38.7829 24.6335 39.1084 24.191 39.4279 23.7845C39.8619 23.2412 40.2063 22.632 40.4479 21.98C40.6729 21.356 40.7914 20.675 40.7989 19.94C40.7989 19.6295 40.7839 19.3205 40.7524 19.016C40.721 18.7045 40.7054 18.3916 40.7059 18.0785C40.7059 17.453 40.7764 16.8905 40.9159 16.391C41.0569 15.89 41.2759 15.461 41.5729 15.101C41.8699 14.741 42.2569 14.4725 42.7324 14.2925C43.2109 14.1125 43.7809 14.015 44.4439 14C45.2344 14 45.8629 14.156 46.3324 14.4695C46.8004 14.7815 47.1604 15.191 47.4094 15.6995C47.6599 16.2065 47.8204 16.7735 47.8894 17.399C47.9614 18.023 48.0004 18.656 48.0079 19.2965V19.496C48.0079 19.817 48.0109 20.102 48.0199 20.351C48.0339 20.8572 48.1492 21.3556 48.3589 21.8165C48.4684 22.058 48.6319 22.3205 48.8509 22.601C49.2259 23.0945 49.6099 23.591 49.9999 24.0905C50.3899 24.59 50.7454 25.106 51.0649 25.6355C51.3859 26.168 51.6484 26.723 51.8509 27.3005C52.0549 27.8795 52.1599 28.5035 52.1674 29.1755C52.1695 29.7053 52.0864 30.232 51.9214 30.7355V30.734ZM42.0904 18.524C42.1984 18.524 42.2884 18.551 42.3604 18.605C42.4336 18.6639 42.49 18.741 42.5239 18.8285C42.5616 18.9186 42.5888 19.0127 42.6049 19.109C42.6199 19.2035 42.6289 19.301 42.6289 19.403C42.6314 19.4674 42.6191 19.5316 42.5929 19.5905C42.5672 19.6403 42.5315 19.6842 42.4879 19.7195L42.3469 19.8365C42.2967 19.8791 42.25 19.9257 42.2074 19.976C42.1512 20.0636 42.0745 20.1362 41.9839 20.1875C41.891 20.2414 41.8009 20.3 41.7139 20.363C41.6308 20.4233 41.5526 20.49 41.4799 20.5625C41.4436 20.6017 41.4156 20.6478 41.3975 20.698C41.3795 20.7483 41.3718 20.8017 41.3749 20.855C41.3749 20.9255 41.4094 20.984 41.4799 21.0305C41.6549 21.1407 41.7936 21.2997 41.8789 21.488C41.9569 21.668 42.0439 21.8435 42.1369 22.016C42.2299 22.187 42.3514 22.331 42.4999 22.4495C42.6484 22.5665 42.8794 22.625 43.1899 22.625H43.2619C43.5739 22.61 43.8709 22.5275 44.1529 22.379C44.4334 22.2305 44.7154 22.0745 44.9959 21.9095C45.0448 21.882 45.096 21.8589 45.1489 21.8405C45.2034 21.8211 45.2545 21.7932 45.3004 21.758L46.1554 21.0905C46.1703 21.0402 46.1823 20.9891 46.1914 20.9375C46.2006 20.8827 46.2086 20.8277 46.2154 20.7725C46.2181 20.6979 46.1971 20.6244 46.1554 20.5625C46.1171 20.5081 46.0699 20.4604 46.0159 20.4215C45.956 20.3806 45.8879 20.353 45.8164 20.3405C45.7449 20.3261 45.6747 20.3061 45.6064 20.2805C45.4195 20.2421 45.2407 20.171 45.0784 20.0705C44.9173 19.9704 44.7439 19.8918 44.5624 19.8365C44.5324 19.8275 44.5084 19.805 44.4919 19.766C44.4741 19.7198 44.4586 19.6728 44.4454 19.625C44.43 19.5755 44.4259 19.5233 44.4334 19.472C44.442 19.4327 44.4378 19.3917 44.4214 19.355C44.4214 19.262 44.4289 19.1645 44.4454 19.0625C44.4616 18.9592 44.4973 18.86 44.5504 18.77C44.5962 18.6867 44.6603 18.6148 44.7379 18.56C44.8304 18.506 44.9354 18.4771 45.0424 18.476C45.2854 18.476 45.4609 18.566 45.5704 18.746C45.6799 18.926 45.7384 19.121 45.7459 19.331C45.7479 19.4243 45.7278 19.5168 45.6874 19.601C45.6474 19.6811 45.6268 19.7695 45.6274 19.859C45.6274 19.922 45.6484 19.964 45.6874 19.988C45.7347 20.0139 45.7868 20.0297 45.8404 20.0345C46.0204 20.0345 46.1359 19.9925 46.1914 19.907C46.2546 19.7879 46.2866 19.6548 46.2844 19.52C46.2844 19.34 46.2694 19.1405 46.2394 18.9215C46.2098 18.7096 46.1459 18.504 46.0504 18.3125C45.963 18.1327 45.8394 17.9729 45.6874 17.843C45.5247 17.7137 45.3206 17.6476 45.1129 17.657C44.7079 17.657 44.4139 17.7575 44.2339 17.9615C44.0539 18.164 43.9609 18.4685 43.9534 18.875C43.9534 18.992 43.9609 19.109 43.9759 19.226C43.9909 19.3445 43.9999 19.4615 43.9999 19.5785C43.9999 19.6175 43.9954 19.637 43.9879 19.637C43.9636 19.6317 43.9399 19.6237 43.9174 19.613C43.8707 19.5941 43.8242 19.5745 43.7779 19.5545C43.7206 19.5303 43.6614 19.5107 43.6009 19.496C43.5013 19.4718 43.3977 19.4677 43.2964 19.484C43.2343 19.4919 43.1716 19.4959 43.1089 19.496C42.9994 19.496 42.9439 19.4765 42.9439 19.4375C42.9439 19.3205 42.9379 19.172 42.9214 18.992C42.9064 18.812 42.8674 18.632 42.8044 18.452C42.7521 18.2919 42.6729 18.1417 42.5704 18.008C42.4759 17.891 42.3364 17.828 42.1489 17.8205C42.023 17.8176 41.9009 17.8639 41.8084 17.9495C41.7122 18.0386 41.6293 18.1411 41.5624 18.254C41.4906 18.3759 41.4465 18.5121 41.4334 18.653C41.4209 18.7783 41.4054 18.9034 41.3869 19.028C41.393 19.2349 41.4283 19.44 41.4919 19.637C41.5309 19.7615 41.5744 19.871 41.6209 19.9655C41.6674 20.0585 41.7229 20.105 41.7859 20.105C41.8234 20.105 41.8759 20.078 41.9374 20.024C42.0004 19.9685 42.0319 19.919 42.0319 19.871C42.0319 19.847 42.0199 19.832 41.9959 19.8245C41.9733 19.8167 41.9494 19.8126 41.9254 19.8125C41.8714 19.8125 41.8234 19.7855 41.7844 19.73C41.7442 19.6725 41.7129 19.6093 41.6914 19.5425C41.6668 19.4689 41.6433 19.3949 41.6209 19.3205C41.5742 19.1181 41.6036 18.9056 41.7034 18.7235C41.7739 18.5975 41.9029 18.5315 42.0904 18.524ZM39.5344 36.77C39.7219 36.77 39.9064 36.755 40.0864 36.722C40.2646 36.6914 40.4356 36.6278 40.5904 36.5345C40.739 36.4486 40.8605 36.3228 40.9414 36.1715C41.0268 35.9958 41.0748 35.8042 41.0824 35.609C41.0825 35.4695 41.0586 35.331 41.0119 35.1995C40.9643 35.0654 40.8971 34.939 40.8124 34.8245C40.7199 34.6778 40.6182 34.537 40.5079 34.403C40.3977 34.2685 40.296 34.1272 40.2034 33.98C40.0576 33.7656 39.9126 33.5506 39.7684 33.335C39.6289 33.125 39.4879 32.903 39.3484 32.6675C39.2251 32.4679 39.1076 32.2649 38.9959 32.0585C38.8813 31.8479 38.7477 31.648 38.5969 31.4615C38.5017 31.3426 38.3919 31.2363 38.2699 31.145C38.1447 31.0509 37.9916 31.0012 37.8349 31.004C37.6715 31.0016 37.5131 31.0605 37.3909 31.169C37.2513 31.2907 37.1219 31.4237 37.0039 31.5665C36.8656 31.7286 36.7168 31.8814 36.5584 32.024C36.3934 32.1725 36.1834 32.2895 35.9254 32.375C35.7508 32.4218 35.5902 32.5104 35.4574 32.633C35.3479 32.7425 35.2924 32.9105 35.2924 33.137C35.2924 33.293 35.3044 33.449 35.3284 33.605C35.3509 33.761 35.3674 33.9185 35.3749 34.0745C35.3749 34.2845 35.3449 34.484 35.2804 34.6715C35.2199 34.8488 35.1885 35.0347 35.1874 35.222C35.1874 35.4335 35.2624 35.582 35.4094 35.6675C35.5594 35.7545 35.7259 35.813 35.9134 35.843C36.1489 35.8835 36.3709 35.9135 36.5824 35.9375C36.7924 35.9615 36.9994 35.9975 37.2034 36.0425C37.4059 36.0905 37.6084 36.14 37.8124 36.1955C38.0149 36.2495 38.2309 36.3365 38.4574 36.4535C38.5024 36.476 38.5744 36.5045 38.6674 36.5345L38.9839 36.6395C39.1009 36.68 39.2104 36.7115 39.3124 36.734C39.385 36.7535 39.4594 36.7655 39.5344 36.77ZM43.8244 35.363C44.0434 35.363 44.2774 35.3405 44.5279 35.2925C45.0379 35.1969 45.5312 35.0271 45.9919 34.7885C46.2064 34.6791 46.4103 34.5501 46.6009 34.403C46.6199 34.3817 46.636 34.358 46.6489 34.3325C46.6639 34.3024 46.6754 34.2707 46.6834 34.238V34.226C46.7299 34.055 46.7689 33.866 46.8004 33.6635C46.8329 33.4572 46.8605 33.2501 46.8829 33.0425C46.9056 32.8349 46.9331 32.6278 46.9654 32.4215C46.9954 32.219 47.0239 32.0195 47.0464 31.8245C47.0779 31.6145 47.1169 31.4105 47.1634 31.2155C47.2114 31.0205 47.2729 30.836 47.3509 30.6635C47.428 30.4936 47.5353 30.3391 47.6674 30.2075C47.8213 30.0592 47.9949 29.933 48.1834 29.8325V29.8085L48.1714 29.774C48.1741 29.6945 48.1984 29.6171 48.2419 29.5505C48.2945 29.4644 48.3531 29.3822 48.4174 29.3045C48.4799 29.2256 48.5555 29.1581 48.6409 29.105C48.719 29.0582 48.8014 29.019 48.8869 28.988C48.8396 28.7995 48.7886 28.612 48.7339 28.4255C48.6796 28.2399 48.6326 28.0523 48.5929 27.863C48.5546 27.6235 48.508 27.3853 48.4534 27.149C48.41 26.9657 48.3549 26.7853 48.2884 26.609C48.2213 26.4372 48.1304 26.2756 48.0184 26.129C47.9029 25.973 47.7574 25.784 47.5864 25.5665C47.5211 25.4935 47.4619 25.4152 47.4094 25.3325C47.3687 25.2395 47.3453 25.1399 47.3404 25.0385C47.3217 24.9359 47.2982 24.8343 47.2699 24.734C47.1646 24.3541 47.0435 23.9788 46.9069 23.609C46.8349 23.4115 46.7487 23.2195 46.6489 23.0345C46.5693 22.8863 46.4832 22.7417 46.3909 22.601C46.3129 22.484 46.2304 22.4255 46.1449 22.4255C45.9574 22.4255 45.7339 22.5005 45.4759 22.649C45.2194 22.7975 44.9449 22.961 44.6569 23.141C44.3674 23.321 44.0869 23.489 43.8124 23.645C43.5394 23.801 43.2934 23.8745 43.0744 23.867C42.8407 23.8668 42.6137 23.7887 42.4294 23.645C42.2308 23.4936 42.0497 23.3206 41.8894 23.129C41.7259 22.934 41.5894 22.766 41.4799 22.625C41.3704 22.484 41.2894 22.406 41.2339 22.391C41.1724 22.391 41.1364 22.4375 41.1289 22.5305C41.1206 22.6358 41.1166 22.7414 41.1169 22.847V23.0465C41.1169 23.0945 41.1094 23.1245 41.0929 23.141C41.0074 23.321 40.9129 23.4965 40.8124 23.6675C40.7104 23.84 40.6099 24.0155 40.5079 24.1955C40.3059 24.5414 40.193 24.9321 40.1794 25.3325C40.1794 25.4495 40.1869 25.5665 40.2034 25.6835C40.2184 25.8005 40.2574 25.9145 40.3204 26.024L40.2964 26.069C40.2362 26.1526 40.1695 26.2314 40.0969 26.3045C40.023 26.3798 39.9567 26.4622 39.8989 26.5505C39.612 26.9744 39.4051 27.4471 39.2884 27.9455C39.1714 28.445 39.1084 28.9535 39.1009 29.468C39.1009 29.6015 39.1099 29.735 39.1249 29.867C39.1399 30.0005 39.1489 30.1325 39.1489 30.266C39.1485 30.3093 39.1445 30.3524 39.1369 30.395C39.1294 30.4376 39.1254 30.4807 39.1249 30.524C39.2917 30.5428 39.4521 30.5987 39.5944 30.6875C39.7744 30.7895 39.9694 30.9185 40.1794 31.0745C40.3894 31.2305 40.5904 31.4105 40.7779 31.6145C40.9654 31.817 41.1439 32.015 41.3164 32.2115C41.4889 32.4065 41.6134 32.6015 41.6914 32.7965C41.7694 32.9915 41.8204 33.152 41.8429 33.2765C41.847 33.3672 41.8324 33.4578 41.8002 33.5426C41.7679 33.6275 41.7187 33.7049 41.6554 33.77C41.5209 33.9012 41.3619 34.0047 41.1874 34.0745C41.3209 34.3085 41.4844 34.508 41.6794 34.6715C41.8744 34.8365 42.0859 34.9685 42.3124 35.0705C42.5389 35.1725 42.7849 35.246 43.0504 35.2925C43.3159 35.3405 43.5754 35.363 43.8244 35.363ZM48.5239 37.028C48.6874 37.028 48.8479 37.004 49.0039 36.9575C49.2403 36.8897 49.4653 36.7871 49.6714 36.653C49.8754 36.5195 50.0614 36.356 50.2339 36.1595C50.6414 35.6894 51.14 35.3067 51.6994 35.0345L52.0864 34.859C52.2192 34.8011 52.348 34.7345 52.4719 34.6595C52.5615 34.6028 52.6445 34.5364 52.7194 34.4615C52.7572 34.425 52.787 34.3811 52.8072 34.3326C52.8273 34.2841 52.8373 34.232 52.8364 34.1795C52.8365 34.1192 52.8243 34.0594 52.8004 34.004C52.7725 33.9416 52.7372 33.8827 52.6954 33.8285C52.5885 33.6797 52.487 33.5271 52.3909 33.371C52.3041 33.229 52.2293 33.08 52.1674 32.9255L51.9799 32.4575C51.9123 32.2857 51.8572 32.1092 51.8149 31.9295C51.7987 31.874 51.7711 31.8224 51.7339 31.778C51.6585 31.6653 51.5556 31.5737 51.4348 31.512C51.314 31.4503 51.1795 31.4205 51.0439 31.4255C50.904 31.425 50.7665 31.4612 50.6449 31.5305L50.2459 31.754C50.1071 31.831 49.9665 31.9051 49.8244 31.976C49.6863 32.0455 49.5336 32.0815 49.3789 32.081C49.2406 32.087 49.1043 32.0464 48.9919 31.9655C48.8841 31.8799 48.7961 31.7719 48.7339 31.649C48.6673 31.5239 48.6086 31.3946 48.5584 31.262L48.4174 30.875C48.3564 30.9753 48.2861 31.0697 48.2074 31.157C48.1271 31.2464 48.0636 31.3495 48.0199 31.4615C47.9179 31.6955 47.8549 31.9565 47.8324 32.246C47.7934 32.699 47.7424 33.14 47.6794 33.5705C47.6153 34.0095 47.5098 34.4414 47.3644 34.8605C47.323 34.9945 47.2914 35.1314 47.2699 35.27C47.2467 35.4136 47.2306 35.5583 47.2219 35.7035C47.2219 36.086 47.3404 36.4025 47.5744 36.653C47.8084 36.902 48.1249 37.028 48.5239 37.028Z" fill="white"/>
<path d="M71.5572 26.272C72.1865 26.3893 72.7039 26.704 73.1092 27.216C73.5145 27.728 73.7172 28.3147 73.7172 28.976C73.7172 29.5733 73.5679 30.1013 73.2692 30.56C72.9812 31.008 72.5599 31.36 72.0052 31.616C71.4505 31.872 70.7945 32 70.0372 32H65.2212V20.832H69.8292C70.5865 20.832 71.2372 20.9547 71.7812 21.2C72.3359 21.4453 72.7519 21.7867 73.0292 22.224C73.3172 22.6613 73.4612 23.1573 73.4612 23.712C73.4612 24.3627 73.2852 24.9067 72.9332 25.344C72.5919 25.7813 72.1332 26.0907 71.5572 26.272ZM67.4612 25.44H69.5092C70.0425 25.44 70.4532 25.3227 70.7412 25.088C71.0292 24.8427 71.1732 24.496 71.1732 24.048C71.1732 23.6 71.0292 23.2533 70.7412 23.008C70.4532 22.7627 70.0425 22.64 69.5092 22.64H67.4612V25.44ZM69.7172 30.176C70.2612 30.176 70.6825 30.048 70.9812 29.792C71.2905 29.536 71.4452 29.1733 71.4452 28.704C71.4452 28.224 71.2852 27.8507 70.9652 27.584C70.6452 27.3067 70.2132 27.168 69.6692 27.168H67.4612V30.176H69.7172ZM74.9264 27.536C74.9264 26.64 75.1024 25.8453 75.4544 25.152C75.8171 24.4587 76.3024 23.9253 76.9104 23.552C77.5291 23.1787 78.2171 22.992 78.9744 22.992C79.6358 22.992 80.2118 23.1253 80.7024 23.392C81.2038 23.6587 81.6038 23.9947 81.9024 24.4V23.136H84.1584V32H81.9024V30.704C81.6144 31.12 81.2144 31.4667 80.7024 31.744C80.2011 32.0107 79.6198 32.144 78.9584 32.144C78.2118 32.144 77.5291 31.952 76.9104 31.568C76.3024 31.184 75.8171 30.6453 75.4544 29.952C75.1024 29.248 74.9264 28.4427 74.9264 27.536ZM81.9024 27.568C81.9024 27.024 81.7958 26.56 81.5824 26.176C81.3691 25.7813 81.0811 25.4827 80.7184 25.28C80.3558 25.0667 79.9664 24.96 79.5504 24.96C79.1344 24.96 78.7504 25.0613 78.3984 25.264C78.0464 25.4667 77.7584 25.7653 77.5344 26.16C77.3211 26.544 77.2144 27.0027 77.2144 27.536C77.2144 28.0693 77.3211 28.5387 77.5344 28.944C77.7584 29.3387 78.0464 29.6427 78.3984 29.856C78.7611 30.0693 79.1451 30.176 79.5504 30.176C79.9664 30.176 80.3558 30.0747 80.7184 29.872C81.0811 29.6587 81.3691 29.36 81.5824 28.976C81.7958 28.5813 81.9024 28.112 81.9024 27.568ZM87.4822 22.08C87.0875 22.08 86.7569 21.9573 86.4902 21.712C86.2342 21.456 86.1062 21.1413 86.1062 20.768C86.1062 20.3947 86.2342 20.0853 86.4902 19.84C86.7569 19.584 87.0875 19.456 87.4822 19.456C87.8769 19.456 88.2022 19.584 88.4582 19.84C88.7249 20.0853 88.8582 20.3947 88.8582 20.768C88.8582 21.1413 88.7249 21.456 88.4582 21.712C88.2022 21.9573 87.8769 22.08 87.4822 22.08ZM88.5862 23.136V32H86.3462V23.136H88.5862ZM95.6953 32L93.8713 29.248L92.2553 32H89.8553L92.7513 27.552L89.8233 23.136H92.3513L94.1593 25.872L95.7913 23.136H98.1913L95.2793 27.552L98.2233 32H95.6953ZM98.8639 27.536C98.8639 26.64 99.0399 25.8453 99.3919 25.152C99.7546 24.4587 100.24 23.9253 100.848 23.552C101.467 23.1787 102.155 22.992 102.912 22.992C103.573 22.992 104.149 23.1253 104.64 23.392C105.141 23.6587 105.541 23.9947 105.84 24.4V23.136H108.096V32H105.84V30.704C105.552 31.12 105.152 31.4667 104.64 31.744C104.139 32.0107 103.557 32.144 102.896 32.144C102.149 32.144 101.467 31.952 100.848 31.568C100.24 31.184 99.7546 30.6453 99.3919 29.952C99.0399 29.248 98.8639 28.4427 98.8639 27.536ZM105.84 27.568C105.84 27.024 105.733 26.56 105.52 26.176C105.307 25.7813 105.019 25.4827 104.656 25.28C104.293 25.0667 103.904 24.96 103.488 24.96C103.072 24.96 102.688 25.0613 102.336 25.264C101.984 25.4667 101.696 25.7653 101.472 26.16C101.259 26.544 101.152 27.0027 101.152 27.536C101.152 28.0693 101.259 28.5387 101.472 28.944C101.696 29.3387 101.984 29.6427 102.336 29.856C102.699 30.0693 103.083 30.176 103.488 30.176C103.904 30.176 104.293 30.0747 104.656 29.872C105.019 29.6587 105.307 29.36 105.52 28.976C105.733 28.5813 105.84 28.112 105.84 27.568ZM112.524 24.512C112.812 24.0427 113.185 23.6747 113.644 23.408C114.113 23.1413 114.646 23.008 115.244 23.008V25.36H114.652C113.948 25.36 113.414 25.5253 113.052 25.856C112.7 26.1867 112.524 26.7627 112.524 27.584V32H110.284V23.136H112.524V24.512ZM122.805 24.416C123.093 24.0107 123.488 23.6747 123.989 23.408C124.501 23.1307 125.082 22.992 125.733 22.992C126.49 22.992 127.173 23.1787 127.781 23.552C128.4 23.9253 128.885 24.4587 129.237 25.152C129.6 25.8347 129.781 26.6293 129.781 27.536C129.781 28.4427 129.6 29.248 129.237 29.952C128.885 30.6453 128.4 31.184 127.781 31.568C127.173 31.952 126.49 32.144 125.733 32.144C125.082 32.144 124.506 32.0107 124.005 31.744C123.514 31.4773 123.114 31.1413 122.805 30.736V36.224H120.565V23.136H122.805V24.416ZM127.493 27.536C127.493 27.0027 127.381 26.544 127.157 26.16C126.944 25.7653 126.656 25.4667 126.293 25.264C125.941 25.0613 125.557 24.96 125.141 24.96C124.736 24.96 124.352 25.0667 123.989 25.28C123.637 25.4827 123.349 25.7813 123.125 26.176C122.912 26.5707 122.805 27.0347 122.805 27.568C122.805 28.1013 122.912 28.5653 123.125 28.96C123.349 29.3547 123.637 29.6587 123.989 29.872C124.352 30.0747 124.736 30.176 125.141 30.176C125.557 30.176 125.941 30.0693 126.293 29.856C126.656 29.6427 126.944 29.3387 127.157 28.944C127.381 28.5493 127.493 28.08 127.493 27.536ZM130.833 27.536C130.833 26.64 131.009 25.8453 131.361 25.152C131.723 24.4587 132.209 23.9253 132.817 23.552C133.435 23.1787 134.123 22.992 134.881 22.992C135.542 22.992 136.118 23.1253 136.609 23.392C137.11 23.6587 137.51 23.9947 137.809 24.4V23.136H140.065V32H137.809V30.704C137.521 31.12 137.121 31.4667 136.609 31.744C136.107 32.0107 135.526 32.144 134.865 32.144C134.118 32.144 133.435 31.952 132.817 31.568C132.209 31.184 131.723 30.6453 131.361 29.952C131.009 29.248 130.833 28.4427 130.833 27.536ZM137.809 27.568C137.809 27.024 137.702 26.56 137.489 26.176C137.275 25.7813 136.987 25.4827 136.625 25.28C136.262 25.0667 135.873 24.96 135.457 24.96C135.041 24.96 134.657 25.0613 134.305 25.264C133.953 25.4667 133.665 25.7653 133.441 26.16C133.227 26.544 133.121 27.0027 133.121 27.536C133.121 28.0693 133.227 28.5387 133.441 28.944C133.665 29.3387 133.953 29.6427 134.305 29.856C134.667 30.0693 135.051 30.176 135.457 30.176C135.873 30.176 136.262 30.0747 136.625 29.872C136.987 29.6587 137.275 29.36 137.489 28.976C137.702 28.5813 137.809 28.112 137.809 27.568ZM144.492 24.512C144.78 24.0427 145.154 23.6747 145.612 23.408C146.082 23.1413 146.615 23.008 147.212 23.008V25.36H146.62C145.916 25.36 145.383 25.5253 145.02 25.856C144.668 26.1867 144.492 26.7627 144.492 27.584V32H142.252V23.136H144.492V24.512ZM148.145 27.536C148.145 26.64 148.321 25.8453 148.673 25.152C149.036 24.4587 149.521 23.9253 150.129 23.552C150.748 23.1787 151.436 22.992 152.193 22.992C152.855 22.992 153.431 23.1253 153.921 23.392C154.423 23.6587 154.823 23.9947 155.121 24.4V23.136H157.377V32H155.121V30.704C154.833 31.12 154.433 31.4667 153.921 31.744C153.42 32.0107 152.839 32.144 152.177 32.144C151.431 32.144 150.748 31.952 150.129 31.568C149.521 31.184 149.036 30.6453 148.673 29.952C148.321 29.248 148.145 28.4427 148.145 27.536ZM155.121 27.568C155.121 27.024 155.015 26.56 154.801 26.176C154.588 25.7813 154.3 25.4827 153.937 25.28C153.575 25.0667 153.185 24.96 152.769 24.96C152.353 24.96 151.969 25.0613 151.617 25.264C151.265 25.4667 150.977 25.7653 150.753 26.16C150.54 26.544 150.433 27.0027 150.433 27.536C150.433 28.0693 150.54 28.5387 150.753 28.944C150.977 29.3387 151.265 29.6427 151.617 29.856C151.98 30.0693 152.364 30.176 152.769 30.176C153.185 30.176 153.575 30.0747 153.937 29.872C154.3 29.6587 154.588 29.36 154.801 28.976C155.015 28.5813 155.121 28.112 155.121 27.568ZM167.313 32.144C166.46 32.144 165.692 31.9573 165.009 31.584C164.327 31.2 163.788 30.6613 163.393 29.968C163.009 29.2747 162.817 28.4747 162.817 27.568C162.817 26.6613 163.015 25.8613 163.409 25.168C163.815 24.4747 164.364 23.9413 165.057 23.568C165.751 23.184 166.524 22.992 167.377 22.992C168.231 22.992 169.004 23.184 169.697 23.568C170.391 23.9413 170.935 24.4747 171.329 25.168C171.735 25.8613 171.937 26.6613 171.937 27.568C171.937 28.4747 171.729 29.2747 171.313 29.968C170.908 30.6613 170.353 31.2 169.649 31.584C168.956 31.9573 168.177 32.144 167.313 32.144ZM167.313 30.192C167.719 30.192 168.097 30.096 168.449 29.904C168.812 29.7013 169.1 29.4027 169.313 29.008C169.527 28.6133 169.633 28.1333 169.633 27.568C169.633 26.7253 169.409 26.08 168.961 25.632C168.524 25.1733 167.985 24.944 167.345 24.944C166.705 24.944 166.167 25.1733 165.729 25.632C165.303 26.08 165.089 26.7253 165.089 27.568C165.089 28.4107 165.297 29.0613 165.713 29.52C166.14 29.968 166.673 30.192 167.313 30.192ZM179.633 30.224H183.313V32H177.393V20.832H179.633V30.224ZM185.873 22.08C185.478 22.08 185.147 21.9573 184.881 21.712C184.625 21.456 184.497 21.1413 184.497 20.768C184.497 20.3947 184.625 20.0853 184.881 19.84C185.147 19.584 185.478 19.456 185.873 19.456C186.267 19.456 186.593 19.584 186.849 19.84C187.115 20.0853 187.249 20.3947 187.249 20.768C187.249 21.1413 187.115 21.456 186.849 21.712C186.593 21.9573 186.267 22.08 185.873 22.08ZM186.977 23.136V32H184.737V23.136H186.977ZM194.102 23.008C195.158 23.008 196.011 23.344 196.662 24.016C197.313 24.6773 197.638 25.6053 197.638 26.8V32H195.398V27.104C195.398 26.4 195.222 25.8613 194.87 25.488C194.518 25.104 194.038 24.912 193.43 24.912C192.811 24.912 192.321 25.104 191.958 25.488C191.606 25.8613 191.43 26.4 191.43 27.104V32H189.19V23.136H191.43V24.24C191.729 23.856 192.107 23.5573 192.566 23.344C193.035 23.12 193.547 23.008 194.102 23.008ZM208.136 23.136V32H205.88V30.88C205.592 31.264 205.213 31.568 204.744 31.792C204.285 32.0053 203.784 32.112 203.24 32.112C202.547 32.112 201.933 31.968 201.4 31.68C200.867 31.3813 200.445 30.9493 200.136 30.384C199.837 29.808 199.688 29.1253 199.688 28.336V23.136H201.928V28.016C201.928 28.72 202.104 29.264 202.456 29.648C202.808 30.0213 203.288 30.208 203.896 30.208C204.515 30.208 205 30.0213 205.352 29.648C205.704 29.264 205.88 28.72 205.88 28.016V23.136H208.136ZM215.242 32L213.418 29.248L211.802 32H209.402L212.298 27.552L209.37 23.136H211.898L213.706 25.872L215.338 23.136H217.738L214.826 27.552L217.77 32H215.242Z" fill="white"/>
</svg>
